<svg xmlns="http://www.w3.org/2000/svg" width="960" height="280" viewBox="0 0 960 280" role="img"><title>spiderman blue</title><defs><linearGradient id="bg" x2="1" y2="1"><stop stop-color="#07111F"/><stop offset="1" stop-color="#102C4B"/></linearGradient><pattern id="grid" width="32" height="32" patternUnits="userSpaceOnUse"><path d="M32 0H0V32" fill="none" stroke="#38BDF8" opacity=".07"/></pattern></defs><rect width="960" height="280" rx="18" fill="url(#bg)"/><rect width="960" height="280" rx="18" fill="url(#grid)"/><rect x="1" y="1" width="958" height="278" rx="18" fill="none" stroke="#24527B"/><g font-family="Consolas,monospace"><text x="40" y="48" font-size="14" fill="#38BDF8" >FRIENDLY NEIGHBORHOOD DEVELOPER</text><text x="40" y="112" font-size="34" fill="#F0F9FF" font-weight="700">WITH GREAT CODE</text><text x="40" y="158" font-size="34" fill="#F0F9FF" font-weight="700">COMES GREAT</text><text x="40" y="204" font-size="34" fill="#38BDF8" font-weight="700">RESPONSIBILITY.</text><g stroke="#38BDF8" fill="none" opacity=".12"><path d="M790 0L560 280"/><path d="M790 0L650 280"/><path d="M790 0L740 280"/><path d="M790 0L830 280"/><path d="M790 0L920 280"/><path d="M735 55Q790 125 845 55"/><path d="M680 110Q790 180 900 110"/><path d="M625 165Q790 235 955 165"/><path d="M570 220Q790 290 1010 220"/></g><g><animateTransform attributeName="transform" type="rotate" values="-6 770 0;6 770 0;-6 770 0" dur="5s" repeatCount="indefinite"/><path d="M770 0V107" stroke="#DBF4FF" stroke-width="2"/><path d="M747 72L728 115L754 145M793 72L812 115L786 145" fill="none" stroke="#2563EB" stroke-width="18" stroke-linecap="round"/><path d="M751 115Q770 96 789 115L794 158H746Z" fill="#0369A1" stroke="#38BDF8" stroke-width="2"/><ellipse cx="770" cy="190" rx="35" ry="43" fill="#075985" stroke="#38BDF8" stroke-width="2"/><g stroke="#38BDF8" opacity=".7" fill="none"><path d="M770 148V231M737 178L802 202M738 202L802 178M748 155L790 224M791 155L749 225"/><ellipse cx="770" cy="190" rx="20" ry="29"/></g><path d="M742 177L764 186L758 203Q743 202 742 177M798 177L776 186L782 203Q797 202 798 177" fill="#E0F2FE" stroke="#07111F" stroke-width="3"/></g></g></svg>